# xmcd
#
# Track frame offsets:
#	150
#	10581
#	24221
#	37081
#	47513
#	59503
#	71178
#	83916
#	98903
#	112158
#
# Disc length: 1723
#
# Revision: 1
# Processed by: cddbd v1.5.1PL0 Copyright (c) Steve Scherf et al.
# Submitted via: EasyCDDAExtractor 4.6.9.1
# Normalized: r0:TDELIM( - ),TSWAP
#
DISCID=8006b90a
DTITLE=Various Original Artists - Country Hits
DYEAR=1999
DGENRE=Country
TTITLE0=Faron Young - Hello Walls
TTITLE1=Jimmy Dean - Big Bad John
TTITLE2=Claude King - Wolverton Mountain
TTITLE3=George Hamilton IV - Abilene
TTITLE4=Jack Greene - There Goes My Everything
TTITLE5=Henson Cargrill - Skip A Rope
TTITLE6=David Houston - My Elusive Dreams
TTITLE7=Jeannie C. Riley - Harper Valley P.T.A.
TTITLE8=Lynn Anderson - Rose Garden
TTITLE9=Ray Price - For The Good Times
EXTD=
EXTT0=
EXTT1=
EXTT2=
EXTT3=
EXTT4=
EXTT5=
EXTT6=
EXTT7=
EXTT8=
EXTT9=
PLAYORDER=
